<svg xmlns="http://www.w3.org/2000/svg" viewBox="0 0 70 70"><path fill="#FF9B00" d="M40 39.7l-6.4 8.5L33 47h6.8l-.9 1.2-6 7.4c-.1.2-.3.2-.5.1-.1-.1-.2-.3-.1-.5l5.4-7.9.6 1.2h-6.8l.9-1.2 6.4-8.5c.2-.3.7-.4 1-.1.4.2.5.7.2 1z"/><circle cx="14.5" cy="28.5" r="6.7" fill="#939598"/><circle cx="28.2" cy="26.8" r="5.3" fill="#A7A9AC"/><path fill="#939598" d="M35.7 32.1c0 1.7-1.4 3.1-3.1 3.1H13.9c-1.7 0-3.1-1.4-3.1-3.1 0-1.7 13.4-6.7 15.1-6.7 0 0 .5 4.9 4.1.8 1.3-1.5 5.7 4.2 5.7 5.9z"/><circle cx="33.4" cy="30" r="5.1" fill="#939598"/><path fill="#A7A9AC" d="M38.5 29.6c-.2-2.5-2.2-4.5-4.7-4.7-2.1.2-3.8 2-3.8 4.2 0 2.4 1.9 4.3 4.3 4.3 2.2 0 4-1.7 4.2-3.8zM13.8 21.9c-3.1.3-5.6 2.8-5.9 5.9.3 2.7 2.6 4.7 5.3 4.7 2.9 0 5.3-2.4 5.3-5.3 0-2.7-2.1-5-4.7-5.3z"/><circle cx="21.3" cy="22.5" r="7.1" fill="#939598"/><path fill="#A7A9AC" d="M27.5 20.7c0-.8-.1-1.5-.4-2.2-1.3-1.8-3.4-3.1-5.8-3.1-3.9 0-7.1 3.2-7.1 7.1 0 .7.1 1.3.3 1.9 1.2 2 3.4 3.3 6 3.3 3.9 0 7-3.1 7-7z"/><g><circle cx="56.9" cy="26.9" r="6.7" fill="#939598"/><circle cx="43.1" cy="25.1" r="5.3" fill="#A7A9AC"/><path fill="#939598" d="M35.7 30.4c0 1.7 1.4 3.1 3.1 3.1h18.6c1.7 0 3.1-1.4 3.1-3.1 0-1.7-13.4-6.7-15.1-6.7 0 0-.5 4.9-4.1.8-1.2-1.5-5.6 4.2-5.6 5.9z"/><circle cx="38" cy="28.4" r="5.1" fill="#939598"/><path fill="#A7A9AC" d="M32.9 27.9c.2-2.5 2.2-4.5 4.7-4.7 2.1.2 3.8 2 3.8 4.2 0 2.4-1.9 4.3-4.3 4.3-2.2.1-4-1.6-4.2-3.8zM57.6 20.3c3.1.3 5.6 2.8 5.9 5.9-.3 2.7-2.6 4.7-5.3 4.7-2.9 0-5.3-2.4-5.3-5.3 0-2.8 2-5 4.7-5.3z"/><circle cx="50" cy="20.9" r="7.1" fill="#939598"/><path fill="#A7A9AC" d="M43.9 19c0-.8.1-1.5.4-2.2 1.3-1.8 3.4-3.1 5.8-3.1 3.9 0 7.1 3.2 7.1 7.1 0 .7-.1 1.3-.3 1.9-1.2 2-3.4 3.3-6 3.3-3.9.1-7-3.1-7-7z"/></g><g><path fill="#6D6E71" d="M63.7 36.7c0 2.6-2.9 4.6-6.5 4.6h-39c-3.6 0-6.5-2.1-6.5-4.6 0-2.6 2.9-4.6 6.5-4.6h39c3.6-.1 6.5 2 6.5 4.6z"/><circle cx="35.6" cy="25.7" r="8.5" fill="#BCBEC0"/><circle cx="45" cy="31.1" r="7.8" fill="#6D6E71"/><path fill="#BCBEC0" d="M45 23.3c-1.8 0-3.5.6-4.9 1.7-.9 1.3-1.4 2.8-1.4 4.5 0 4.4 3.5 7.9 7.9 7.9 1.7 0 3.2-.5 4.5-1.4 1.1-1.3 1.7-3 1.7-4.9 0-4.3-3.5-7.8-7.8-7.8z"/><circle cx="58.7" cy="36.2" r="5.1" fill="#6D6E71"/><circle cx="17.3" cy="34.8" r="6.5" fill="#6D6E71"/><path fill="#BCBEC0" d="M22.1 33.5c0-1.8-.8-3.4-2-4.5-.9-.4-1.8-.7-2.8-.7-3.6 0-6.5 2.9-6.5 6.5 0 1 .2 2 .7 2.8 1.1 1.2 2.7 2 4.5 2 3.4.1 6.1-2.7 6.1-6.1z"/><circle cx="25" cy="32" r="7.6" fill="#6D6E71"/><path fill="#BCBEC0" d="M25 24.4c-4.2 0-7.6 3.4-7.6 7.6 0 1.5.4 2.9 1.2 4 1.3 1.2 3.1 1.9 5 1.9 4.1 0 7.5-3.3 7.5-7.5 0-1.9-.7-3.7-1.9-5-1.4-.6-2.8-1-4.2-1z"/><circle cx="54.2" cy="31.1" r="5.4" fill="#6D6E71"/><path fill="#BCBEC0" d="M54.3 35.4c2.8 0 5-2.1 5.3-4.8-.3-2.7-2.6-4.9-5.4-4.9-2.5 0-4.6 1.7-5.2 3.9v.4c0 3 2.4 5.4 5.3 5.4z"/><path fill="#BCBEC0" d="M58.7 31.1c-2.6 0-4.7 1.9-5 4.4.2 2.6 2.4 4.7 5 4.7s4.8-2 5-4.6c-.2-2.5-2.4-4.5-5-4.5z"/></g></svg>