<svg xmlns="http://www.w3.org/2000/svg" viewBox="0 0 70 70"><g fill="#33B5D9"><path d="M33.9 40.1c-.1.5-.4 3.1-.9 3.9-.1.2-.3.4-.4.5-.4.2-.8.3-1.1.1-.6-.3-.6-1.3-.1-2.2.4-.6 1.8-1.8 2.5-2.3zM31.1 41.9c0 .3-.2 1.9-.5 2.4-.1.1-.2.2-.2.3-.2.1-.5.2-.7 0-.4-.2-.4-.8-.1-1.3.3-.3 1.1-1 1.5-1.4zM41.1 40.1c-.1.5-.4 3.1-.9 3.9-.1.2-.3.4-.4.5-.4.2-.8.3-1.1.1-.6-.3-.6-1.3-.1-2.2.4-.6 1.8-1.7 2.5-2.3zM26.1 40.1c-.1.5-.4 3.1-.9 3.9-.1.2-.3.4-.4.5-.4.2-.8.3-1.1.1-.6-.3-.6-1.3-.1-2.2.4-.6 1.8-1.7 2.5-2.3z"/></g><path fill="#A7A9AC" d="M67.8 27.9c0 1.9-2.1 3.4-4.8 3.4H34.5c-2.6 0-4.8-1.5-4.8-3.4s2.1-3.4 4.8-3.4H63c2.7 0 4.8 1.6 4.8 3.4z"/><circle cx="47.2" cy="19.9" r="6.2" fill="#E6E7E8"/><circle cx="54.1" cy="23.9" r="5.7" fill="#A7A9AC"/><path fill="#E6E7E8" d="M54.1 18.2c-1.3 0-2.6.5-3.6 1.3-.6.9-1 2.1-1 3.3 0 3.2 2.6 5.8 5.8 5.8 1.2 0 2.3-.4 3.3-1 .8-1 1.3-2.2 1.3-3.6-.1-3.3-2.7-5.8-5.8-5.8z"/><circle cx="64.1" cy="27.6" r="3.7" fill="#A7A9AC"/><circle cx="33.8" cy="26.6" r="4.7" fill="#A7A9AC"/><path fill="#E6E7E8" d="M37.3 25.7c0-1.3-.6-2.5-1.4-3.3a4.695 4.695 0 0 0-6.8 4.2c0 .7.2 1.5.5 2.1.8.9 2 1.4 3.3 1.4 2.4 0 4.4-2 4.4-4.4z"/><circle cx="39.4" cy="24.5" r="5.6" fill="#A7A9AC"/><path fill="#E6E7E8" d="M39.4 18.9c-3.1 0-5.6 2.5-5.6 5.6 0 1.1.3 2.1.8 2.9 1 .9 2.3 1.4 3.7 1.4 3 0 5.5-2.4 5.5-5.5 0-1.4-.5-2.7-1.4-3.7-.9-.4-1.9-.7-3-.7z"/><circle cx="60.9" cy="23.9" r="4" fill="#A7A9AC"/><path fill="#E6E7E8" d="M60.9 27c2 0 3.7-1.5 3.9-3.5-.2-2-1.9-3.6-3.9-3.6-1.8 0-3.3 1.2-3.8 2.9v.3c-.1 2.2 1.7 3.9 3.8 3.9z"/><path fill="#E6E7E8" d="M64.1 23.9c-1.9 0-3.5 1.4-3.7 3.3.1 1.9 1.7 3.4 3.7 3.4 1.9 0 3.5-1.5 3.7-3.3-.2-1.9-1.8-3.4-3.7-3.4z"/><g><path fill="#A7A9AC" d="M42.7 33.6c0 1.9-2.1 3.4-4.8 3.4H9.4c-2.6 0-4.8-1.5-4.8-3.4s2.1-3.4 4.8-3.4H38c2.6 0 4.7 1.5 4.7 3.4z"/><circle cx="22.1" cy="25.5" r="6.2" fill="#E6E7E8"/><circle cx="29" cy="29.6" r="5.7" fill="#A7A9AC"/><path fill="#E6E7E8" d="M29 23.8c-1.3 0-2.6.5-3.6 1.3-.6.9-1 2.1-1 3.3 0 3.2 2.6 5.8 5.8 5.8 1.2 0 2.3-.4 3.3-1 .8-1 1.3-2.2 1.3-3.6-.1-3.2-2.7-5.8-5.8-5.8z"/><circle cx="39" cy="33.3" r="3.7" fill="#A7A9AC"/><circle cx="8.7" cy="32.3" r="4.7" fill="#A7A9AC"/><path fill="#E6E7E8" d="M12.2 31.3c0-1.3-.6-2.5-1.4-3.3A4.695 4.695 0 0 0 4 32.2c0 .7.2 1.5.5 2.1.8.9 2 1.4 3.3 1.4 2.4.1 4.4-1.9 4.4-4.4z"/><circle cx="14.3" cy="30.2" r="5.6" fill="#A7A9AC"/><path fill="#E6E7E8" d="M14.3 24.6c-3.1 0-5.6 2.5-5.6 5.6 0 1.1.3 2.1.8 2.9 1 .9 2.3 1.4 3.7 1.4 3 0 5.5-2.4 5.5-5.5 0-1.4-.5-2.7-1.4-3.7-.9-.4-1.9-.7-3-.7z"/><circle cx="35.8" cy="29.6" r="4" fill="#A7A9AC"/><path fill="#E6E7E8" d="M35.9 32.7c2 0 3.7-1.5 3.9-3.5-.2-2-1.9-3.6-3.9-3.6-1.8 0-3.3 1.2-3.8 2.9v.3c-.1 2.1 1.6 3.9 3.8 3.9z"/><path fill="#E6E7E8" d="M39 29.6c-1.9 0-3.5 1.4-3.7 3.3.1 1.9 1.7 3.4 3.7 3.4 1.9 0 3.5-1.5 3.7-3.3-.2-2-1.7-3.4-3.7-3.4z"/></g><g><circle cx="22.1" cy="35.2" r="9.8" fill="#D1D3D4"/><circle cx="42.4" cy="32.6" r="7.8" fill="#F1F2F2"/><path fill="#D1D3D4" d="M53.3 40.4c0 2.5-2 4.6-4.6 4.6H21.3c-2.5 0-4.6-2-4.6-4.6 0-2.5 19.8-9.9 22.3-9.9 0 0 .8 7.3 6 1.2 1.9-2.2 8.3 6.2 8.3 8.7z"/><circle cx="50" cy="37.4" r="7.6" fill="#D1D3D4"/><path fill="#F1F2F2" d="M57.5 36.8c-.3-3.7-3.2-6.6-6.9-6.9-3.2.3-5.6 3-5.6 6.2 0 3.5 2.8 6.3 6.3 6.3 3.2 0 5.9-2.5 6.2-5.6zM21.1 25.4c-4.6.5-8.2 4.1-8.7 8.7.5 3.9 3.8 6.9 7.8 6.9 4.3 0 7.9-3.5 7.9-7.9-.1-3.9-3.1-7.2-7-7.7z"/><circle cx="32.2" cy="26.3" r="10.4" fill="#D1D3D4"/><path fill="#F1F2F2" d="M41.3 23.6c0-1.1-.2-2.2-.5-3.2-1.9-2.7-5-4.5-8.6-4.5-5.8 0-10.4 4.7-10.4 10.4 0 1 .1 1.9.4 2.8 1.8 2.9 5 4.9 8.7 4.9 5.8 0 10.4-4.7 10.4-10.4z"/></g></svg>