<svg xmlns="http://www.w3.org/2000/svg" viewBox="0 0 70 70"><path fill="#33B5D9" d="M21.7 46c-.1.4-.3 2.7-.7 3.4-.1.2-.2.3-.3.5-.3.2-.7.2-.9.1-.5-.3-.5-1.1-.1-1.9.2-.6 1.3-1.6 2-2.1zM25.9 44.8c-.1.6-.4 3.5-1 4.4-.1.2-.3.4-.5.6-.4.2-.9.3-1.2.1-.7-.4-.7-1.5-.1-2.5.4-.8 1.9-2 2.8-2.6zM50.2 45c-.1.5-.4 3.3-.9 4.2-.1.2-.3.4-.4.6-.4.2-.8.3-1.2.1-.6-.4-.7-1.4-.1-2.4.3-.7 1.8-1.9 2.6-2.5z"/><path fill="#00A2CF" d="M32.3 48.8c-.6 1-1.6 1.5-2.2 1.1-.7-.4-.7-1.5-.1-2.5s3.3-3 3.3-3-.4 3.4-1 4.4z"/><path fill="#33B5D9" d="M42.3 45.7c-.1.5-.4 2.9-.8 3.7-.1.2-.2.4-.4.5-.4.2-.7.2-1 .1-.5-.3-.6-1.2-.1-2.1.3-.6 1.6-1.7 2.3-2.2zM39.6 45.7c-.1.5-.4 2.9-.8 3.7-.1.2-.2.4-.4.5-.4.2-.7.2-1 .1-.5-.3-.6-1.2-.1-2.1.4-.6 1.6-1.6 2.3-2.2zM32.8 45.6c-.1.5-.4 3-.8 3.8-.1.2-.2.4-.4.5-.4.2-.7.2-1 .1-.6-.3-.6-1.3-.1-2.2.2-.6 1.5-1.7 2.3-2.2z"/><g><circle cx="28.1" cy="26.9" r="21.5" fill="#FFE499"/><circle cx="28.1" cy="26.9" r="16.6" fill="#FFD766"/><circle cx="28.1" cy="26.9" r="12.5" fill="#FFBC00"/></g><g><path fill="#D1D3D4" d="M64.9 45.1c0 2.9-3.2 5.2-7.2 5.2H14.2c-4 0-7.2-2.3-7.2-5.2 0-2.9 3.2-5.2 7.2-5.2h43.5c4 .1 7.2 2.4 7.2 5.2z"/><circle cx="33.6" cy="32.9" r="9.5" fill="#FFF"/><circle cx="44" cy="39" r="8.7" fill="#D1D3D4"/><path fill="#FFF" d="M44 30.3c-2.1 0-3.9.7-5.4 1.9-1 1.4-1.5 3.1-1.5 5 0 4.9 3.9 8.8 8.8 8.8 1.8 0 3.6-.6 5-1.5 1.2-1.5 1.9-3.4 1.9-5.4-.1-4.9-4-8.8-8.8-8.8z"/><circle cx="59.3" cy="44.7" r="5.7" fill="#D1D3D4"/><circle cx="13.1" cy="43.1" r="7.2" fill="#D1D3D4"/><path fill="#FFF" d="M18.5 41.7c0-2-.8-3.7-2.2-5-1-.5-2-.7-3.2-.7-4 0-7.2 3.2-7.2 7.2 0 1.1.3 2.2.7 3.2 1.2 1.3 3 2.2 5 2.2 3.8-.1 6.9-3.2 6.9-6.9z"/><circle cx="21.7" cy="40" r="8.5" fill="#D1D3D4"/><path fill="#FFF" d="M21.7 31.4c-4.7 0-8.5 3.8-8.5 8.5 0 1.6.5 3.2 1.3 4.5 1.5 1.3 3.4 2.2 5.6 2.2 4.6 0 8.3-3.7 8.3-8.3 0-2.2-.8-4.1-2.2-5.6-1.3-.8-2.9-1.3-4.5-1.3z"/><circle cx="54.3" cy="39" r="6" fill="#D1D3D4"/><path fill="#FFF" d="M54.5 43.7c3.1 0 5.6-2.3 5.9-5.3-.3-3.1-2.9-5.4-6-5.4-2.8 0-5.1 1.9-5.8 4.4v.4c-.1 3.3 2.6 5.9 5.9 5.9z"/><path fill="#FFF" d="M59.3 39c-2.9 0-5.3 2.2-5.6 5 .2 2.9 2.7 5.2 5.6 5.2 2.9 0 5.3-2.2 5.6-5.1-.3-2.9-2.7-5.1-5.6-5.1z"/></g></svg>