<svg xmlns="http://www.w3.org/2000/svg" viewBox="0 0 70 70"><circle cx="44" cy="20.8" r="9.6" fill="#FFE499"/><circle cx="44" cy="20.8" r="7.4" fill="#FFD766"/><circle cx="44" cy="20.8" r="5.5" fill="#FFBC00"/><g><circle cx="27.9" cy="52.8" r="9.7" fill="#E6E7E8"/><path fill="#E6E7E8" d="M31.1 10.9c0-1.8-1.5-3.2-3.2-3.2-1.8 0-3.2 1.5-3.2 3.2v33.4c0 1.8 1.5 3.2 3.2 3.2 1.8 0 3.2-1.5 3.2-3.2V10.9z"/><path fill="#FF703D" d="M30.1 44.4l.7.2c3.4 1.2 5.7 4.5 5.7 8.1 0 4.8-3.9 8.6-8.6 8.6-4.8 0-8.6-3.9-8.6-8.6 0-3.6 2.3-6.9 5.7-8.1l.7-.2h4.4z"/><path fill="#FF703D" d="M25.7 13h4.4v31.7h-4.4z"/><path fill="#FFF" d="M32.1 44.7c1.4 1.6 2.3 3.7 2.3 6 0 5-4.1 9.1-9.1 9.1-1.9 0-3.6-.6-5-1.5 1.7 2.1 4.3 3.5 7.2 3.5 5.1 0 9.2-4.1 9.2-9.2-.1-3.3-1.9-6.3-4.6-7.9z" opacity=".3"/><path fill="#58595B" d="M24.6 13h2.2v.5h-2.2zM24.6 15.4h1.1v.5h-1.1zM24.6 17.7h1.1v.5h-1.1zM24.6 20.1h1.1v.5h-1.1zM24.6 22.5h2.2v.5h-2.2zM24.6 24.8h1.1v.5h-1.1zM24.6 27.2h1.1v.5h-1.1zM24.6 29.6h1.1v.5h-1.1zM24.6 31.9h2.2v.5h-2.2zM24.6 34.3h1.1v.5h-1.1zM24.6 36.7h1.1v.5h-1.1zM24.6 39h1.1v.5h-1.1zM24.6 41.4h2.2v.5h-2.2z"/><circle cx="24.5" cy="50" r="2.1" fill="#FFF"/><path fill="#F1F2F2" d="M30.6 42c0 .6-.5 1.1-1.1 1.1-.6 0-1.1-.5-1.1-1.1V12.1c0-.6.5-1.1 1.1-1.1.6 0 1.1.5 1.1 1.1V42z" opacity=".4"/><g fill="#FFF"><path d="M21.8 17.8c-.2.1-.5.2-.9.2-.9 0-1.6-.6-1.6-1.7 0-1 .7-1.7 1.7-1.7.4 0 .7.1.8.1l-.1.3H21c-.8 0-1.3.5-1.3 1.4 0 .8.5 1.3 1.3 1.3.3 0 .5-.1.7-.1l.1.2zM18.2 14.7c-.3 0-.6.3-.6.6s.3.6.6.6.6-.3.6-.6c0-.4-.3-.6-.6-.6zm0 .9c-.2 0-.3-.2-.3-.3 0-.2.2-.3.3-.3.2 0 .3.2.3.3.1.2-.1.3-.3.3z"/></g></g></svg>