<svg xmlns="http://www.w3.org/2000/svg" viewBox="0 0 70 70"><path fill="#FF9B00" d="M34.9 39.2l-5.1 6.7-.4-.9h5.3l-.7.9-4.7 5.8c-.1.1-.3.1-.4 0s-.1-.3-.1-.4l4.2-6.2.5.9h-5.3l.7-.9 5.1-6.7c.2-.3.6-.3.8-.1.2.3.3.7.1.9z"/><g fill="#00A2CF"><path d="M37.5 39.3c-.3.6-1 .9-1.4.7s-.4-.9-.1-1.5c.4-.6 2-1.8 2-1.8s-.1 2-.5 2.6zM27.3 39.5c-.3.5-.7.7-1 .5s-.3-.7-.1-1.2c.3-.5 1.6-1.4 1.6-1.4s-.2 1.6-.5 2.1zM16.9 34.2c-.3.6-.9.9-1.3.7-.4-.2-.4-.9-.1-1.5.3-.6 1.9-1.8 1.9-1.8s-.1 2-.5 2.6zM21.3 39.2c-.3.5-.8.7-1.1.5-.3-.2-.3-.7-.1-1.2.3-.5 1.6-1.4 1.6-1.4s-.1 1.6-.4 2.1zM24.8 39.3c-.3.6-1 .9-1.4.7s-.4-.9-.1-1.5c.4-.6 2-1.8 2-1.8s-.2 2-.5 2.6zM28.7 39.6c-.2.4-.6.6-.9.4-.3-.1-.3-.6-.1-1 .2-.4 1.3-1.2 1.3-1.2s-.1 1.4-.3 1.8zM42.7 39.6c-.2.4-.6.6-.9.4-.3-.1-.3-.6-.1-1s1.3-1.2 1.3-1.2-.1 1.4-.3 1.8z"/><path d="M37 39.6c-.2.4-.6.6-.9.4-.3-.1-.3-.6-.1-1s1.3-1.2 1.3-1.2-.1 1.4-.3 1.8zM53.7 33.3c-.2.3-.5.5-.7.4s-.2-.5 0-.8 1.1-1 1.1-1-.2 1.1-.4 1.4zM50.3 37.5c-.3.5-.8.7-1.1.6-.3-.2-.4-.7-.1-1.2.3-.5 1.7-1.5 1.7-1.5s-.2 1.6-.5 2.1zM55.8 33.3c-.2.4-.6.6-.8.4-.2-.1-.3-.6-.1-.9.2-.4 1.3-1.1 1.3-1.1s-.2 1.2-.4 1.6zM16.8 34.5c-.2.4-.6.6-.8.4-.2-.1-.3-.6-.1-.9.2-.4 1.3-1.1 1.3-1.1s-.2 1.2-.4 1.6z"/></g><path fill="#BCBEC0" d="M64.2 30.8c0 1.7-2 3.1-4.4 3.1H33.4c-2.4 0-4.4-1.4-4.4-3.1 0-1.7 2-3.1 4.4-3.1h26.4c2.4 0 4.4 1.4 4.4 3.1z"/><circle cx="45.1" cy="23.4" r="5.7" fill="#E6E7E8"/><circle cx="51.4" cy="27.1" r="5.3" fill="#BCBEC0"/><path fill="#E6E7E8" d="M51.4 21.8c-1.2 0-2.4.4-3.3 1.2-.6.9-.9 1.9-.9 3 0 3 2.4 5.3 5.3 5.3 1.1 0 2.2-.3 3-.9.7-.9 1.2-2.1 1.2-3.3 0-2.9-2.3-5.3-5.3-5.3z"/><circle cx="60.7" cy="30.5" r="3.4" fill="#BCBEC0"/><circle cx="32.7" cy="29.6" r="4.4" fill="#BCBEC0"/><path fill="#E6E7E8" d="M36 28.7c0-1.2-.5-2.3-1.3-3-.6-.3-1.2-.5-1.9-.5-2.4 0-4.4 2-4.4 4.4 0 .7.2 1.3.5 1.9.8.8 1.8 1.3 3 1.3 2.2.1 4.1-1.8 4.1-4.1z"/><circle cx="37.9" cy="27.7" r="5.2" fill="#BCBEC0"/><path fill="#E6E7E8" d="M37.9 22.5c-2.9 0-5.2 2.3-5.2 5.2 0 1 .3 1.9.8 2.7.9.8 2.1 1.3 3.4 1.3 2.8 0 5-2.3 5-5 0-1.3-.5-2.5-1.3-3.4-.8-.5-1.7-.8-2.7-.8z"/><circle cx="57.7" cy="27.1" r="3.7" fill="#BCBEC0"/><path fill="#E6E7E8" d="M57.8 30c1.9 0 3.4-1.4 3.6-3.2-.2-1.9-1.7-3.3-3.6-3.3-1.7 0-3.1 1.1-3.5 2.7v.3c-.1 1.9 1.5 3.5 3.5 3.5z"/><path fill="#E6E7E8" d="M60.7 27.1c-1.8 0-3.2 1.3-3.4 3a3.4 3.4 0 0 0 3.4 3.2c1.8 0 3.2-1.4 3.4-3.1-.1-1.7-1.6-3.1-3.4-3.1z"/><g><path fill="#BCBEC0" d="M42.5 32.3c0 1.7-2 3.1-4.4 3.1H11.7c-2.4 0-4.4-1.4-4.4-3.1 0-1.7 2-3.1 4.4-3.1h26.4c2.4 0 4.4 1.4 4.4 3.1z"/><circle cx="23.4" cy="24.9" r="5.7" fill="#E6E7E8"/><circle cx="29.8" cy="28.6" r="5.3" fill="#BCBEC0"/><path fill="#E6E7E8" d="M29.8 23.3c-1.2 0-2.4.4-3.3 1.2-.6.9-.9 1.9-.9 3 0 3 2.4 5.3 5.3 5.3 1.1 0 2.2-.3 3-.9.7-.9 1.2-2.1 1.2-3.3-.1-2.9-2.4-5.3-5.3-5.3z"/><circle cx="39.1" cy="32.1" r="3.4" fill="#BCBEC0"/><circle cx="11" cy="31.1" r="4.4" fill="#BCBEC0"/><path fill="#E6E7E8" d="M14.3 30.2c0-1.2-.5-2.3-1.3-3-.6-.3-1.2-.5-1.9-.5-2.4 0-4.4 2-4.4 4.4 0 .7.2 1.3.5 1.9.8.8 1.8 1.3 3 1.3 2.2.1 4.1-1.8 4.1-4.1z"/><circle cx="16.2" cy="29.2" r="5.2" fill="#BCBEC0"/><path fill="#E6E7E8" d="M16.2 24c-2.9 0-5.2 2.3-5.2 5.2 0 1 .3 1.9.8 2.7.9.8 2.1 1.3 3.4 1.3 2.8 0 5-2.3 5-5 0-1.3-.5-2.5-1.3-3.4-.8-.5-1.7-.8-2.7-.8z"/><circle cx="36.1" cy="28.6" r="3.7" fill="#BCBEC0"/><path fill="#E6E7E8" d="M36.1 31.5c1.9 0 3.4-1.4 3.6-3.2-.2-1.9-1.7-3.3-3.6-3.3-1.7 0-3.1 1.1-3.5 2.7v.3c-.1 1.9 1.5 3.5 3.5 3.5z"/><path fill="#E6E7E8" d="M39.1 28.6c-1.8 0-3.2 1.3-3.4 3a3.4 3.4 0 0 0 3.4 3.2c1.8 0 3.2-1.4 3.4-3.1-.2-1.7-1.7-3.1-3.4-3.1z"/></g><g><circle cx="44.4" cy="33.3" r="7.4" fill="#BCBEC0"/><circle cx="29.1" cy="31.4" r="5.9" fill="#D1D3D4"/><path fill="#BCBEC0" d="M20.9 37.3c0 1.9 1.5 3.4 3.5 3.4h20.7c1.9 0 3.5-1.5 3.5-3.4s-14.9-7.5-16.8-7.5c0 0-.6 5.5-4.5.9-1.5-1.6-6.4 4.7-6.4 6.6z"/><circle cx="23.4" cy="35" r="5.7" fill="#BCBEC0"/><path fill="#D1D3D4" d="M17.7 34.5c.2-2.8 2.4-5 5.2-5.2 2.4.2 4.2 2.3 4.2 4.7 0 2.6-2.1 4.7-4.7 4.7-2.4.1-4.4-1.8-4.7-4.2zM45.2 26c3.5.4 6.2 3.1 6.6 6.6-.3 2.9-2.8 5.2-5.9 5.2-3.3 0-5.9-2.7-5.9-5.9 0-3.1 2.2-5.6 5.2-5.9z"/><circle cx="36.8" cy="26.6" r="7.9" fill="#BCBEC0"/><path fill="#D1D3D4" d="M30 24.6c0-.9.1-1.7.4-2.4 1.4-2.1 3.8-3.4 6.5-3.4 4.3 0 7.9 3.5 7.9 7.9 0 .7-.1 1.4-.3 2.1-1.4 2.2-3.8 3.7-6.6 3.7-4.4-.1-7.9-3.6-7.9-7.9z"/></g></svg>